<?xml version="1.0"?>
<svg xmlns="http://www.w3.org/2000/svg" id="Layer_1" data-name="Layer 1" viewBox="0 0 64 64" width="512" height="512"><circle cx="11.99512" cy="45.99512" r="0.75488"/><circle cx="14.00488" cy="45.99512" r="0.75488"/><circle cx="16.00488" cy="45.99512" r="0.75488"/><circle cx="29.99512" cy="45.99512" r="0.75488"/><circle cx="32.00488" cy="45.99512" r="0.75488"/><circle cx="34.00488" cy="45.99512" r="0.75488"/><path d="M50.75,39.29419V36a.75019.75019,0,0,0-.75-.75H32.75v-2.5H44a.75019.75019,0,0,0,.75-.75,12.76469,12.76469,0,0,0-9.23773-12.2467,6.75,6.75,0,1,0-7.02454,0A12.76469,12.76469,0,0,0,19.25,32a.75019.75019,0,0,0,.75.75H31.25v2.5H14a.75019.75019,0,0,0-.75.75v3.29419a6.748,6.748,0,0,0-1.22235,13.16028l1.26093,3.78284a.74994.74994,0,0,0,1.42285,0l1.26093-3.78284A6.748,6.748,0,0,0,14.75,39.29419V36.75h16.5v2.54419a6.748,6.748,0,0,0-1.22235,13.16028l1.26093,3.78284a.74994.74994,0,0,0,1.42285,0l1.26093-3.78284A6.748,6.748,0,0,0,32.75,39.29419V36.75h16.5v2.54419a6.748,6.748,0,0,0-1.22235,13.16028l1.26093,3.78284a.74994.74994,0,0,0,1.42285,0l1.26093-3.78284A6.748,6.748,0,0,0,50.75,39.29419ZM32,8.75A5.25,5.25,0,1,1,26.75,14,5.25574,5.25574,0,0,1,32,8.75Zm-5.25,22.5V28a.75.75,0,0,0-1.5,0v3.25H20.7749a11.25013,11.25013,0,0,1,22.4502,0H38.75V28a.75.75,0,0,0-1.5,0v3.25H26.75ZM19.25,46a5.23261,5.23261,0,0,1-2.63446,4.5249l.09589-.2876a.75.75,0,0,0-1.42285-.47461L15.20947,50l-.389,1.16705-.52258,1.56787L14,53.62842l-.29785-.89349-.52258-1.56787L12.79053,50l-.0791-.2373a.75.75,0,0,0-1.42285.47461l.09589.2876A5.24005,5.24005,0,1,1,19.25,46Zm18,0a5.23261,5.23261,0,0,1-2.63446,4.5249l.09589-.2876a.75.75,0,1,0-1.42285-.47461L33.20947,50l-.389,1.16705-.52258,1.56787L32,53.62842l-.29785-.89349-.52258-1.56787L30.79053,50l-.0791-.2373a.75.75,0,1,0-1.42285.47461l.09589.2876A5.24005,5.24005,0,1,1,37.25,46Zm15.36554,4.5249.09589-.2876a.75.75,0,1,0-1.42285-.47461L51.20947,50l-.389,1.16705-.52258,1.56787L50,53.62842l-.29785-.89349-.52258-1.56787L48.79053,50l-.0791-.2373a.75.75,0,0,0-1.42285.47461l.09589.2876a5.25007,5.25007,0,1,1,5.23108,0Z"/><circle cx="47.99512" cy="45.99512" r="0.75488"/><circle cx="50.00488" cy="45.99512" r="0.75488"/><circle cx="52.00488" cy="45.99512" r="0.75488"/></svg>
