<svg id="Layer_1" enable-background="new 0 0 64 64" viewBox="0 0 64 64" xmlns="http://www.w3.org/2000/svg"><g><g><g><g><path d="m21.1 29.9c-5.4 0-9.9-4.4-9.9-9.9s4.4-9.9 9.9-9.9 9.9 4.5 9.9 9.9-4.5 9.9-9.9 9.9zm0-17.8c-4.4 0-7.9 3.6-7.9 7.9 0 4.4 3.6 7.9 7.9 7.9 4.4 0 7.9-3.6 7.9-7.9s-3.5-7.9-7.9-7.9z" fill="#231f20"/></g></g><g><g><path d="m24.3 38.3h-6.3l-.5-5.2c-1-.3-2-.7-3-1.2l-4.1 3.3-4.4-4.5 3.3-4.1c-.5-.9-.9-1.9-1.2-3l-5.2-.5v-6.3l5.2-.5c.3-1 .7-2 1.2-3l-3.3-3.9 4.4-4.4 4.1 3.3c.9-.5 1.9-.9 3-1.2l.5-5.3h6.3l.5 5.2c1 .3 2 .7 3 1.2l4.1-3.3 4.4 4.4-3.3 4.1c.5.9.9 1.9 1.2 3l5.2.5v6.3l-5.2.5c-.3 1-.7 2-1.2 3l3.3 4.1-4.4 4.4-4.1-3.3c-.9.5-1.9.9-3 1.2zm-4.6-1.9h2.8l.5-4.8.7-.2c1.3-.3 2.5-.8 3.6-1.5l.6-.4 3.8 3.1 2-2-3.1-3.8.4-.6c.7-1.1 1.2-2.4 1.5-3.6l.2-.7 4.8-.5v-2.8l-4.8-.5-.2-.7c-.3-1.3-.8-2.5-1.5-3.6l-.4-.6 3.1-3.8-2-2-3.8 3.1-.6-.4c-1.1-.6-2.3-1.1-3.6-1.4l-.7-.1-.5-4.8h-2.8l-.5 4.8-.7.2c-1.2.2-2.5.7-3.6 1.4l-.6.4-3.8-3.1-2 2 3.1 3.8-.4.6c-.7 1.1-1.2 2.4-1.5 3.6l-.2.7-4.8.5v2.8l4.8.5.2.7c.3 1.3.8 2.5 1.5 3.6l.4.6-3.1 3.8 2 2 3.8-3.1.6.4c1.1.7 2.3 1.2 3.6 1.5l.7.2z" fill="#231f20"/></g></g></g><g><g><g><g><path d="m33 61.6h-7.3c-.5 0-1-.4-1-1 0-.5.4-1 1-1h6.3v-15.1h-6.4c-.5 0-1-.4-1-1 0-.5.4-1 1-1h7.4c.5 0 1 .4 1 1v17c0 .6-.5 1.1-1 1.1z" fill="#231f20"/></g></g><g><g><path d="m51.6 45.8c-.5 0-1-.4-1-1v-2.3c0-.2-.1-.3-.3-.3h-9.2c-.5 0-.9.2-1.3.5l-2.6 2.3c-.6.5-1.3.8-2.1.8h-2.1c-.5 0-1-.4-1-1 0-.5.4-1 1-1h2.2c.3 0 .6-.1.8-.3l2.6-2.3c.7-.6 1.6-1 2.6-1h9.2c1.2 0 2.3 1 2.3 2.3v2.3c-.1.5-.6 1-1.1 1z" fill="#231f20"/></g></g><g><g><path d="m58.1 50.1h-7.8c-.5 0-1-.4-1-1 0-.5.4-1 1-1h7.8c.3 0 .6-.1.8-.4.4-.6.4-1.1 0-1.6-.2-.2-.5-.4-.8-.4h-11.9c-.5 0-1-.4-1-1 0-.5.4-1 1-1h11.9c.9 0 1.8.4 2.3 1.1 1 1.3 1 2.7 0 4-.6.9-1.4 1.3-2.3 1.3z" fill="#231f20"/></g></g><g><g><path d="m57.2 55.3h-7c-.5 0-1-.4-1-1 0-.5.4-1 1-1h7c.3 0 .5-.1.6-.3 1.1-1.8-.1-2.8-.4-3.2-.4-.4-.4-1-.1-1.4.4-.4 1-.4 1.4-.1 1.8 1.6 2 3.7.8 5.6-.6.9-1.4 1.4-2.3 1.4z" fill="#231f20"/></g></g><g><g><path d="m55.4 59.8h-7c-.5 0-1-.4-1-1 0-.5.4-1 1-1h7c.3 0 .6-.1.8-.3.5-.5.9-1.2-.1-2.6-.3-.4-.2-1 .2-1.4.4-.3 1-.2 1.4.2 1.9 2.6.6 4.5-.1 5.1-.5.6-1.3 1-2.2 1z" fill="#231f20"/></g></g><g><g><path d="m53.8 64h-11.6c-.8 0-1.6-.2-2.3-.5-4-1.8-6.1-2.2-6.6-2s-1.1 0-1.3-.5 0-1.1.5-1.3 1.9-.7 8.1 2c.5.2 1 .3 1.5.3h11.4c.3-.1 1-.4 1.2-1 .2-.5-.1-1.3-.5-1.8-.3-.4-.2-1 .3-1.3.4-.3 1-.2 1.3.3.8 1.3 1.1 2.5.7 3.5-.5 1.7-2.3 2.2-2.5 2.3-.1 0-.2 0-.2 0z" fill="#231f20"/></g></g></g><g><g><g><path d="m26.8 58.9h-.3c-.5 0-1-.4-1-1 0-.5.4-1 1-1h.3c.5 0 1 .4 1 1s-.5 1-1 1z" fill="#231f20"/></g></g><g><g><path d="m29.7 58.9h-.3c-.5 0-1-.4-1-1 0-.5.4-1 1-1h.3c.5 0 1 .4 1 1-.1.6-.5 1-1 1z" fill="#231f20"/></g></g></g></g><g><g><path d="m53.8 45.8c-.5 0-1-.4-1-1v-25.9c0-.4.2-.7.6-.9 3.3-1.4 5.4-4.5 5.4-8.1 0-3-1.6-5.8-4.1-7.4v4.2c0 1.2-.5 2.4-1.4 3.3s-2 1.4-3.3 1.4c-2.6 0-4.6-2.1-4.6-4.7v-4.1c-2.5 1.6-4.1 4.3-4.1 7.4 0 3.5 2.1 6.7 5.4 8.1.4.1.6.5.6.9v22.3c0 .5-.4 1-1 1-.5 0-1-.4-1-1v-21.8c-3.7-1.8-6-5.5-6-9.6 0-4.3 2.6-8.2 6.6-9.9.5-.1.8 0 1.1.2s.4.5.4.8v5.8c0 1.5 1.2 2.7 2.7 2.7.7 0 1.4-.3 1.9-.8s.8-1.2.8-1.9v-5.8c0-.3.2-.6.4-.8.3-.2.6-.2.9-.1 4 1.6 6.6 5.5 6.6 9.9 0 4.1-2.3 7.8-6 9.6v25.3c.1.4-.4.9-.9.9z" fill="#231f20"/></g></g></g></svg>