<svg height="490pt" viewBox="-10 0 490 490.00752" width="490pt" xmlns="http://www.w3.org/2000/svg"><path d="m226.949219 194.011719c36.992187-.042969 66.972656-30.023438 67.019531-67.019531v-24.007813c0-37.011719-30.007812-67.019531-67.019531-67.019531-37.015625 0-67.023438 30.007812-67.023438 67.019531v24.007813c.046875 36.996093 30.027344 66.976562 67.023438 67.019531zm-53.023438-91.027344c0-29.28125 23.738281-53.019531 53.023438-53.019531 29.28125 0 53.019531 23.738281 53.019531 53.019531v24.007813c0 29.28125-23.738281 53.019531-53.019531 53.019531-29.285157 0-53.023438-23.738281-53.023438-53.019531zm0 0"/><path d="m453.949219 227c-.003907-91.8125-55.308594-174.585938-140.132813-209.71875-84.824218-35.136719-182.460937-15.714844-247.382812 49.207031-78.121094 78.183594-88.585938 201.261719-24.789063 291.515625 63.792969 90.253906 183.3125 121.453125 283.082031 73.894532l-2.007812 47.714843c0 .097657-.007812.199219-.007812.296875-.007813 3.9375 2.265624 7.519532 5.832031 9.183594 3.554687 1.640625 7.742187 1.03125 10.683593-1.550781l43.722657-37.675781 43.734375 37.6875c1.808594 1.574218 4.125 2.441406 6.523437 2.453124 1.433594-.003906 2.847657-.316406 4.144531-.917968 3.566407-1.664063 5.839844-5.246094 5.832032-9.179688 0-.101562 0-.199218-.007813-.300781l-4.148437-98.484375c35.816406-30.15625 41.289062-83.269531 12.375-120.09375 1.691406-11.265625 2.542968-22.640625 2.546875-34.03125zm-440 0c0-117.449219 95.550781-213 213-213 117.445312 0 213 95.550781 213 213 0 7.046875-.355469 14.109375-1.042969 21.113281-23.230469-19.566406-54.988281-25.589843-83.765625-15.882812-13.152344-13.710938-31.34375-21.4375-50.339844-21.382813h-17.269531c-2.949219 0-5.585938 1.851563-6.582031 4.632813l-34.429688 95.71875-5.023437-46.644531h.113281c2.996094 0 5.660156-1.90625 6.625-4.742188l12-35.183594c.730469-2.132812.386719-4.488281-.921875-6.324218-1.308594-1.835938-3.421875-2.929688-5.675781-2.9375l-50.023438-.175782h-.027343c-2.253907 0-4.375 1.085938-5.6875 2.921875-1.316407 1.835938-1.664063 4.191407-.941407 6.328125l12 35.363282c.964844 2.839843 3.628907 4.75 6.628907 4.75h1.5625l-5.0625 46.972656-35.105469-96.082032c-1.007813-2.765624-3.636719-4.601562-6.574219-4.601562h-21.316406c-38.609375.046875-69.902344 31.335938-69.941406 69.949219v99.425781c-41.683594-40.066406-65.230469-95.398438-65.199219-153.21875zm222.652343 23.554688h-15.988281l-7.242187-21.328126 30.472656.109376zm-7.28125 31.691406 12.101563 112.339844-11.902344 8.035156-12.289062-8.089844zm-2.371093 157.753906c-48.722657.046875-95.972657-16.695312-133.800781-47.402344v-111.796875c.035156-30.886719 25.0625-55.914062 55.945312-55.945312h16.414062l43.183594 118.179687-5.84375 54.242188c-.28125 2.609375.917969 5.15625 3.109375 6.601562l19.757813 13.003906c2.359375 1.554688 5.421875 1.539063 7.765625-.042968l19.265625-13.011719c2.152344-1.449219 3.320312-3.972656 3.042968-6.550781l-5.839843-54.238282 42.503906-118.191406h12.347656c13.371094-.03125 26.308594 4.761719 36.429688 13.5-25.191407 13.75-41.972657 39.046875-44.847657 67.601563-2.871093 28.554687 8.535157 56.691406 30.484376 75.179687l-1.464844 34.769532c-30.40625 15.828124-64.175782 24.09375-98.453125 24.101562zm201.847656 30.898438-39.097656-33.6875c-3.785157-3.59375-9.71875-3.59375-13.5 0l-39.101563 33.6875 3.382813-80.3125c26.378906 14.789062 58.554687 14.789062 84.933593 0zm-45.847656-83.226563c-40.320313 0-73-32.679687-73-73 0-40.316406 32.679687-73 73-73 40.316406 0 73 32.683594 73 73-.046875 40.300781-32.703125 72.957031-73 73zm0 0"/><path d="m419.304688 280.632812-47.96875 47.972657-24.726563-24.964844c-1.753906-1.804687-4.339844-2.527344-6.773437-1.894531-2.433594.632812-4.34375 2.523437-5 4.949218-.65625 2.429688.042968 5.023438 1.828124 6.796876l29.671876 29.960937c1.3125 1.324219 3.097656 2.070313 4.957031 2.074219h.019531c1.855469 0 3.636719-.738282 4.949219-2.050782l52.945312-52.945312c2.734375-2.734375 2.734375-7.164062 0-9.898438-2.734375-2.734374-7.164062-2.734374-9.898437 0zm0 0"/></svg>