<svg id="Layer_1" enable-background="new 0 0 512 512" height="512" viewBox="0 0 512 512" width="512" xmlns="http://www.w3.org/2000/svg"><path d="m340.278 76.583c18.633 0 33.793-15.16 33.793-33.793 0-18.632-15.159-33.79-33.793-33.79s-33.793 15.158-33.793 33.789c0 18.634 15.16 33.794 33.793 33.794zm0-53.583c10.914 0 19.793 8.877 19.793 19.789 0 10.914-8.879 19.793-19.793 19.793s-19.793-8.879-19.793-19.793c0-10.912 8.879-19.789 19.793-19.789zm-168.552 53.583c18.633 0 33.793-15.16 33.793-33.793 0-18.632-15.16-33.79-33.793-33.79-18.634 0-33.793 15.158-33.793 33.789 0 18.634 15.159 33.794 33.793 33.794zm0-53.583c10.914 0 19.793 8.877 19.793 19.789 0 10.914-8.879 19.793-19.793 19.793s-19.793-8.879-19.793-19.793c0-10.912 8.879-19.789 19.793-19.789zm-84.275 149.525c11.225 0 21.379-4.651 28.653-12.12 12.609 9.882 35.77 13.594 55.621 13.594h.033c19.834-.004 42.985-3.72 55.588-13.597 7.275 7.471 17.43 12.123 28.657 12.123 11.225 0 21.378-4.651 28.653-12.12 12.609 9.881 35.771 13.594 55.621 13.594h.032c19.835-.004 42.986-3.72 55.59-13.597 7.275 7.47 17.43 12.123 28.656 12.123 22.068 0 40.022-17.954 40.022-40.022 0-22.065-17.954-40.017-40.022-40.017-12.185 0-23.108 5.48-30.455 14.096-11.926-17.666-31.922-28.559-53.821-28.559-21.898 0-41.895 10.893-53.823 28.557-7.346-8.615-18.269-14.094-30.452-14.094-12.185 0-23.108 5.48-30.455 14.096-11.926-17.666-31.922-28.559-53.822-28.559-21.899 0-41.895 10.893-53.823 28.557-7.347-8.615-18.269-14.094-30.453-14.094-22.068 0-40.022 17.952-40.022 40.017-.001 22.068 17.953 40.022 40.022 40.022zm337.104-66.039c14.349 0 26.022 11.671 26.022 26.017 0 14.349-11.673 26.022-26.022 26.022s-26.022-11.673-26.022-26.022c-.001-14.346 11.673-26.017 26.022-26.017zm-84.277-14.463c19.735 0 37.5 11.274 45.961 28.926-1.106 3.66-1.708 7.537-1.708 11.554 0 5.81 1.254 11.328 3.49 16.315-7.415 6.613-26.327 11.177-47.717 11.181-.011 0-.02 0-.03 0-21.4 0-40.322-4.562-47.743-11.177 2.237-4.988 3.492-10.508 3.492-16.319 0-4.018-.602-7.897-1.709-11.559 8.466-17.65 26.232-28.921 45.964-28.921zm-84.275 14.463c14.348 0 26.021 11.671 26.021 26.017 0 14.349-11.673 26.022-26.021 26.022-14.349 0-26.022-11.673-26.022-26.022-.001-14.346 11.673-26.017 26.022-26.017zm-84.277-14.463c19.734 0 37.5 11.274 45.962 28.926-1.106 3.66-1.708 7.537-1.708 11.554 0 5.809 1.254 11.328 3.49 16.315-7.414 6.612-26.326 11.177-47.716 11.181-.012 0-.02 0-.031 0-21.399 0-40.321-4.562-47.743-11.177 2.237-4.988 3.492-10.508 3.492-16.319 0-4.018-.602-7.897-1.709-11.559 8.465-17.65 26.231-28.921 45.963-28.921zm-84.275 14.463c14.349 0 26.022 11.671 26.022 26.017 0 14.349-11.673 26.022-26.022 26.022s-26.022-11.673-26.022-26.022c-.001-14.346 11.673-26.017 26.022-26.017zm388.262 233.076c-12.626 0-23.273 8.622-26.372 20.287h-17.789v-96.849h64.448c3.866 0 7-3.134 7-7 0-43.254-35.19-78.445-78.445-78.445-20.954 0-40.654 8.16-55.472 22.976-13.155 13.154-21.048 30.158-22.657 48.469h-12.307c-3.555-39.985-37.222-71.445-78.116-71.445-40.897 0-74.567 31.46-78.122 71.445h-12.314c-3.555-39.986-37.223-71.445-78.116-71.445-20.954 0-40.654 8.16-55.472 22.976-14.818 14.817-22.979 34.516-22.979 55.469 0 3.866 3.134 7 7 7h64.448v96.849h-17.789c-3.099-11.665-13.746-20.287-26.372-20.287-15.046 0-27.287 12.241-27.287 27.287s12.241 27.286 27.287 27.286c12.626 0 23.273-8.622 26.372-20.286h24.789c3.866 0 7-3.134 7-7v-103.849h70.276v205.713h-50.904c-3.099-11.664-13.746-20.286-26.372-20.286-15.046 0-27.287 12.24-27.287 27.286s12.241 27.287 27.287 27.287c12.626 0 23.273-8.622 26.372-20.287h57.904c3.866 0 7-3.134 7-7v-212.713h70.276v131.908c-11.665 3.099-20.287 13.745-20.287 26.372 0 15.046 12.241 27.287 27.287 27.287s27.287-12.241 27.287-27.287c0-12.626-8.622-23.273-20.287-26.372v-131.908h70.276v212.713c0 3.866 3.134 7 7 7h57.904c3.098 11.665 13.745 20.287 26.372 20.287 15.046 0 27.287-12.241 27.287-27.287s-12.241-27.286-27.287-27.286c-12.626 0-23.273 8.622-26.372 20.286h-50.904v-205.713h70.276v103.849c0 3.866 3.134 7 7 7h24.789c3.099 11.664 13.746 20.286 26.372 20.286 15.046 0 27.287-12.24 27.287-27.286s-12.241-27.287-27.287-27.287zm-439.426 40.573c-7.326 0-13.287-5.96-13.287-13.286s5.96-13.287 13.287-13.287 13.287 5.961 13.287 13.287-5.961 13.286-13.287 13.286zm51.161 108.865c-7.326 0-13.287-5.961-13.287-13.287s5.96-13.286 13.287-13.286 13.287 5.96 13.287 13.286-5.961 13.287-13.287 13.287zm181.839-67.72c0 7.326-5.96 13.287-13.287 13.287s-13.287-5.961-13.287-13.287 5.96-13.286 13.287-13.286 13.287 5.96 13.287 13.286zm155.265 41.147c7.326 0 13.287 5.96 13.287 13.286s-5.961 13.287-13.287 13.287-13.287-5.961-13.287-13.287 5.961-13.286 13.287-13.286zm-45.57-251.996c12.173-12.172 28.358-18.876 45.573-18.876 33.169 0 60.557 25.191 64.058 57.445h-128.124c1.564-14.565 7.985-28.063 18.493-38.569zm-122.979-18.876c33.169 0 60.557 25.191 64.058 57.445h-128.122c3.501-32.253 30.892-57.444 64.064-57.445zm-214.125 18.876c12.173-12.172 28.358-18.876 45.573-18.876 33.169 0 60.557 25.191 64.058 57.445h-128.124c1.564-14.565 7.985-28.063 18.493-38.569zm433.835 169.704c-7.326 0-13.287-5.96-13.287-13.286s5.96-13.287 13.287-13.287 13.287 5.96 13.287 13.287-5.96 13.286-13.287 13.286z"/></svg>