<?xml version="1.0"?>
<svg xmlns="http://www.w3.org/2000/svg" id="Line" viewBox="0 0 64 64"><path d="M55.3877,5.16625H8.6123A4.61756,4.61756,0,0,0,4,9.77856V38.55444a4.61745,4.61745,0,0,0,4.6123,4.61181H22.33685c.31808.71913,1.1332,1.22506,1.5245,1.78953.03728.83974-.464,1.89709-.04129,2.80605l-3.04955,7.05579a1.35323,1.35323,0,0,0,1.93462,1.68354l2.35736-1.43744.56251,2.70166a1.3531,1.3531,0,0,0,2.55176.25676l2.91369-6.74779a3.68139,3.68139,0,0,1,.90857-.40741,3.73226,3.73226,0,0,1,.91065.40771l2.91357,6.74854a1.34617,1.34617,0,0,0,2.55273-.26026l.56152-2.69921,2.35743,1.4375a1.34525,1.34525,0,0,0,1.93457-1.68213L40.179,47.75964c.4188-.90458-.07467-1.96564-.04333-2.80042.38777-.56893,1.20626-1.071,1.52546-1.793H55.3877A4.61745,4.61745,0,0,0,60,38.55444V9.77856A4.61756,4.61756,0,0,0,55.3877,5.16625Zm-42.418,31.41407A1.82373,1.82373,0,0,1,11.04,34.89038V13.44018a1.82373,1.82373,0,0,1,1.92969-1.68994h38.0498A1.83022,1.83022,0,0,1,52.96,13.44018v21.4502a1.83022,1.83022,0,0,1-1.94043,1.68994H40.024c-.66872-1.07423-2.06643-.86869-2.99568-1.18843-.58221-.78577-.79431-2.09529-1.97952-2.46682-1.15768-.39733-2.12545.5755-3.04975.833-.92471-.25844-1.89177-1.22783-3.04983-.833-1.1828.37086-1.39894,1.682-1.97749,2.4658-.92826.32038-2.33012.11512-2.99765,1.18946Zm14.1914,18.74951-.42871-2.062a1.00083,1.00083,0,0,0-1.5-.65039l-1.80859,1.103,2.06085-4.76922a10.93437,10.93437,0,0,1,1.485.28189,3.17731,3.17731,0,0,1,.40722.71194,3.14,3.14,0,0,0,1.39258,1.65961Zm3.09278-5.876a4.268,4.268,0,0,1-.68848.32373c-.46377-.67168-.67649-1.63336-1.418-2.16112A6.6878,6.6878,0,0,0,25.655,46.949c-.00055-.80989.40719-1.74319.10864-2.61042-.25006-.8143-1.16115-1.44711-1.63672-1.99169.42507-.65153,1.38523-1.19461,1.63671-2.06008a5.35779,5.35779,0,0,0-.14656-2.49284c.03295-.22646.55-.1747.80378-.24744a3.67251,3.67251,0,0,0,1.7266-.538,3.636,3.636,0,0,0,1.03418-1.46631,4.17163,4.17163,0,0,1,.38379-.69482,4.31029,4.31029,0,0,1,.68848.32373,3.74863,3.74863,0,0,0,1.74511.58691,6.93243,6.93243,0,0,0,2.43359-.91067c.46542.67116.67612,1.63339,1.418,2.16115a5.651,5.651,0,0,0,2.49023.6343c.02283.79088-.413,1.78175-.10544,2.64257.264.867,1.15027,1.37565,1.62108,2.02732-.47332.65224-1.35632,1.15964-1.62208,2.02689a3.70969,3.70969,0,0,0,.02049,1.81737c.04688.25976.125.69384.14258.74658-.7418.26886-1.82466.1549-2.54687.71292a3.65624,3.65624,0,0,0-1.03418,1.46579,4.08985,4.08985,0,0,1-.38379.69531,4.38788,4.38788,0,0,1-.68848-.32324,3.74362,3.74362,0,0,0-1.74512-.5874A3.74863,3.74863,0,0,0,30.25391,49.45385Zm8.51367,3.16358a1.00786,1.00786,0,0,0-1.5.65041l-.42872,2.062-1.60877-3.726c1.021-.44116,1.26175-1.63856,1.7972-2.37028a11.17652,11.17652,0,0,1,1.48783-.28275l2.061,4.7696ZM58,38.55444a2.61515,2.61515,0,0,1-2.6123,2.61181H41.494c-.33632-.54941-1.0451-1.02559-1.35634-1.498a4.44254,4.44254,0,0,1,.1278-1.08793H51.01953A3.82563,3.82563,0,0,0,54.96,34.89038V13.44018a3.82562,3.82562,0,0,0-3.94043-3.68994H12.96973A3.81969,3.81969,0,0,0,9.04,13.44018v21.4502a3.81969,3.81969,0,0,0,3.92969,3.68994H23.73322a4.73743,4.73743,0,0,1,.12908,1.08595c-.30976.47065-1.02054.94846-1.35853,1.5H8.6123A2.61516,2.61516,0,0,1,6,38.55444V9.77856A2.61527,2.61527,0,0,1,8.6123,7.16625H55.3877A2.61526,2.61526,0,0,1,58,9.77856Z"/><path d="M36.39453,42.31274a4.3952,4.3952,0,0,0-8.79.0001A4.3952,4.3952,0,0,0,36.39453,42.31274Zm-4.39551,2.395a2.39518,2.39518,0,0,1,.00008-4.79A2.39518,2.39518,0,0,1,31.999,44.70776Z"/><path d="M25.26172,30.7395c.86806-.03337,2.27883.28316,2.333-1l0-3.77145H36.4043V29.7395a.99974.99974,0,0,0,1,1h1.333a4.35963,4.35963,0,0,0,3.61835-1.92969h.89142a3.46589,3.46589,0,0,0,3.46191-3.4624V21.3645a3.4659,3.4659,0,0,0-3.46191-3.46241h-.88928a4.35643,4.35643,0,0,0-3.62049-1.93016c-.86716.03324-2.27923-.283-2.333,1v3.77634H27.59473V16.97192a.99974.99974,0,0,0-1-1h-1.333a4.36106,4.36106,0,0,0-3.61926,1.93017H20.752A3.4658,3.4658,0,0,0,17.29,21.364v3.98291a3.46589,3.46589,0,0,0,3.46191,3.4624h.89051A4.36107,4.36107,0,0,0,25.26172,30.7395ZM43.24707,19.90209A1.46424,1.46424,0,0,1,44.709,21.3645v3.98291a1.47942,1.47942,0,0,1-1.61035,1.46238l.001-6.9077ZM38.4043,17.97192a2.41427,2.41427,0,0,1,2.6943,2.36187l0,6.04389a2.40836,2.40836,0,0,1-2.69435,2.36177Zm-2,4.77637V23.968H27.59473V22.74829ZM25.26172,17.97192h.333V28.7395a2.40884,2.40884,0,0,1-2.6953-2.36185l0-6.04392A2.36468,2.36468,0,0,1,25.26172,17.97192Zm-4.36231,8.8374a1.47926,1.47926,0,0,1-1.60936-1.46241V21.364A1.46382,1.46382,0,0,1,20.752,19.90209h.14746v6.90723Z"/></svg>
