<svg id="Layer_1" viewBox="0 0 512 512" xmlns="http://www.w3.org/2000/svg" data-name="Layer 1"><path d="m371.564 161.851c-2.383-1.873-2.796-5.324-.923-7.707s5.324-2.796 7.707-.923l20.766 16.329 32.643-37.705c1.98-2.288 5.44-2.538 7.729-.558 2.288 1.98 2.538 5.44.558 7.729l-35.865 41.427c-1.93 2.364-5.29 2.894-7.741.967l-24.873-19.559zm-118.119 209.559 65.747 54.084 12.373-15.041-65.747-54.084-12.373 15.042zm115.39-23.577-38.807 47.175-48.76-40.111 38.807-47.175zm-16.033-52.588c-.078-.061-.155-.124-.23-.189l-22.995-18.916-12.373 15.041 65.747 54.084 12.373-15.042-42.522-34.979zm5.413-216.913c-.333.133-.681.234-1.042.3l-31.312 9.024v51.76c0 25.035 8.309 48.743 22.627 67.944 4.091 5.486 6.949 8.54 11.686 13.368 12.498 12.234 27.88 21.656 45.254 27.034 23.266-7.203 42.959-21.654 56.939-40.402 14.319-19.202 22.627-42.909 22.627-67.944v-51.761l-79.566-22.93-47.212 13.606zm3.457 328.414 56.293 46.307c1.912 1.572 3.107 3.529 3.653 5.95 4.723 20.939 31.739 27.568 45.714 10.578 11.466-13.939 5.909-34.926-10.822-41.182-7.583-2.835-10.171-.167-14.918-4.072l-65.267-53.689c-3.277-2.695-3.172-5.017-4.793-8.847l5.759-7.001.753.619c3.54 2.912 8.772 2.394 11.677-1.138l15.747-19.142c2.912-3.54 2.394-8.772-1.138-11.677l-42.658-35.091v-51.649c12.266 9.835 26.512 17.426 42.209 22.037 1.073.315 2.166.287 3.161-.021 26.273-7.735 48.481-23.818 64.126-44.8 15.704-21.06 24.817-47.06 24.817-74.514v-55.87c0-2.695-1.94-4.937-4.499-5.406l-84.556-24.368c-1.048-.299-2.112-.272-3.084.022l-42.174 12.154v-15.048c0-9.983-8.15-18.137-18.136-18.137h-271.903v.021c-1.58.001-3.147.682-4.229 1.998l-49.817 60.36c-1.013 1.134-1.572 2.283-1.572 3.849v350.005c0 9.985 8.151 18.135 18.135 18.135h309.388c9.985 0 18.136-8.151 18.136-18.135v-42.251zm-2.438-16.178c.281.188.543.402.783.637l64.903 53.39c9.625 7.917 4.948 14.085 12.481 20.281 10.376 8.534 26.196.056 24.951-13.505-.698-7.609-6.919-13.442-14.515-13.653-4.982-.138-9.354-1.768-13.2-4.932l-65.267-53.689c-2.574-2.117-4.516-4.575-5.874-7.537l-12.366 15.033c2.996.718 5.631 2.03 8.103 3.976zm-326.089-297.071 34.51-41.813v34.669c0 3.919-3.225 7.144-7.144 7.144zm45.502-49.739h264.891c3.918 0 7.144 3.227 7.144 7.145v18.216l-31.819 9.17c-2.403.687-3.97 2.878-3.969 5.26h-.024v55.869c0 54.96 35.487 86.555 35.812 87.35v52.553l-16.198-13.325c-3.39-2.788-8.352-2.44-11.325.737l-.008-.007-16.09 19.55c-1.454 1.767-2.053 3.957-1.849 6.058.406 4.176 3.265 5.848 6.408 8.433l-38.807 47.175-2.087-1.717c-3.539-2.912-8.772-2.393-11.677 1.138l-15.747 19.142c-2.912 3.539-2.393 8.772 1.138 11.677l69.848 57.457c3.539 2.912 8.772 2.393 11.677-1.138l15.747-19.142c1.454-1.767 2.053-3.956 1.849-6.058-.367-3.777-2.528-5.241-5.073-7.335l4.601-5.593c2.934.614 5.233.469 7.595 1.661v50.963c0 3.917-3.225 7.143-7.144 7.143h-309.391c-3.918 0-7.143-3.226-7.143-7.143v-344.508h33.505c9.986 0 18.136-8.15 18.136-18.136zm92.5 125.826c-3.035 0-5.496-2.461-5.496-5.496s2.461-5.496 5.496-5.496h125.691c3.035 0 5.496 2.461 5.496 5.496s-2.461 5.496-5.496 5.496zm0 34.362c-3.035 0-5.496-2.461-5.496-5.496s2.461-5.496 5.496-5.496h137.288c3.035 0 5.496 2.461 5.496 5.496s-2.461 5.496-5.496 5.496zm-41.904-48.848v6.727l-23.202 22.615-16.291-12.81c-2.383-1.873-5.834-1.46-7.707.923s-1.46 5.834.923 7.707l20.064 15.777c2.272 1.786 5.514 1.494 7.435-.602l18.778-18.304v30.309h-52.342v-52.342zm-57.838-10.992h63.334c3.035 0 5.496 2.461 5.496 5.496v1.509l2.483-2.42c2.17-2.11 5.64-2.062 7.75.107 2.11 2.17 2.062 5.64-.107 7.75l-10.125 9.87v46.519c0 3.035-2.461 5.496-5.496 5.496h-63.334c-3.035 0-5.496-2.461-5.496-5.496v-63.334c0-3.035 2.461-5.496 5.496-5.496zm99.743 124.038c-3.035 0-5.496-2.461-5.496-5.496s2.461-5.496 5.496-5.496h125.691c3.035 0 5.496 2.461 5.496 5.496s-2.461 5.496-5.496 5.496zm0 34.362c-3.035 0-5.496-2.461-5.496-5.496s2.461-5.496 5.496-5.496h110.498c3.035 0 5.496 2.461 5.496 5.496s-2.461 5.496-5.496 5.496zm-41.904-48.848v6.727l-23.202 22.615-16.291-12.81c-2.383-1.873-5.834-1.46-7.707.923s-1.46 5.834.923 7.707l20.064 15.777c2.272 1.786 5.514 1.494 7.435-.602l18.778-18.304v30.309h-52.342v-52.342zm-57.838-10.992h63.334c3.035 0 5.496 2.461 5.496 5.496v1.508l2.483-2.42c2.17-2.11 5.64-2.062 7.75.108s2.062 5.64-.107 7.75l-10.125 9.87v46.519c0 3.035-2.461 5.496-5.496 5.496h-63.334c-3.035 0-5.496-2.461-5.496-5.496v-63.334c0-3.035 2.461-5.496 5.496-5.496zm99.743 124.038c-3.035 0-5.496-2.461-5.496-5.496s2.461-5.496 5.496-5.496h55.249c3.035 0 5.496 2.461 5.496 5.496s-2.461 5.496-5.496 5.496zm0 34.362c-3.035 0-5.496-2.461-5.496-5.496s2.461-5.496 5.496-5.496h63.222c3.035 0 5.496 2.461 5.496 5.496s-2.461 5.496-5.496 5.496zm-41.904-48.848v6.727l-23.201 22.616-16.291-12.811c-2.383-1.873-5.834-1.46-7.707.923s-1.46 5.834.923 7.707l20.064 15.778c2.272 1.786 5.514 1.494 7.435-.602l18.778-18.304v30.309h-52.342v-52.342h52.342zm-57.838-10.992h63.334c3.035 0 5.496 2.461 5.496 5.496v1.509l2.483-2.42c2.17-2.11 5.64-2.062 7.75.108s2.062 5.64-.107 7.75l-10.125 9.87v46.519c0 3.035-2.461 5.496-5.496 5.496h-63.334c-3.035 0-5.496-2.461-5.496-5.496v-63.334c0-3.035 2.461-5.496 5.496-5.496z" fill-rule="evenodd"/></svg>