<svg id="Layer_1" enable-background="new 0 0 512 512" height="512" viewBox="0 0 512 512" width="512" xmlns="http://www.w3.org/2000/svg"><path d="m475.25 64.11h-47.81c-2.19-12.59-13.19-22.2-26.4-22.2h-16.36c-3.84-23.74-24.48-41.92-49.29-41.92-24.79 0-45.42 18.19-49.26 41.92h-16.36c-13.22 0-24.23 9.6-26.43 22.2h-47.81c-17.56 0-31.85 14.27-31.85 31.82v81.48h-18.72c-10.95 0-19.86 8.91-19.86 19.86 0 8.31 5.13 15.43 12.39 18.39v11.65h-112.73c-10.95 0-19.86 8.91-19.86 19.86s8.91 19.86 19.86 19.86h112.72v5.01c-7.26 2.96-12.39 10.08-12.39 18.39 0 10.96 8.91 19.88 19.86 19.88h18.72v14.74h-27.17c-14.33 0-25.98 11.65-25.98 25.98v4.78h-2.85c-11.82 0-21.44 9.62-21.44 21.44v13.46c0 4.42 3.58 8.01 8.01 8.01h69.44v81.45c0 17.56 14.29 31.85 31.85 31.85h279.72c17.56 0 31.85-14.29 31.85-31.85v-384.24c-.01-17.55-14.29-31.82-31.85-31.82zm-216.3 4.6c0-5.95 4.85-10.79 10.81-10.79h23.73c4.42 0 8.01-3.59 8.01-8.01 0-18.7 15.2-33.92 33.89-33.92 18.7 0 33.92 15.21 33.92 33.92 0 4.42 3.58 8.01 8.01 8.01h23.73c5.95 0 10.79 4.84 10.79 10.79v22.34c0 5.96-4.84 10.81-10.79 10.81h-131.29c-5.96 0-10.81-4.85-10.81-10.81zm-114 124.71h73.33c2.08 0 3.84 1.76 3.84 3.84s-1.76 3.84-3.84 3.84h-73.33c-2.08 0-3.84-1.76-3.84-3.84s1.76-3.84 3.84-3.84zm64.76 23.7v53.43h-56.21v-53.43zm-184.95 33.88c-2.08 0-3.84-1.76-3.84-3.84s1.76-3.84 3.84-3.84h112.72v7.68zm116.35 39.41c0-2.08 1.76-3.84 3.84-3.84h73.33c2.08 0 3.84 1.76 3.84 3.84 0 2.1-1.76 3.87-3.84 3.87h-73.33c-2.08 0-3.84-1.77-3.84-3.87zm-14.57 60.61c0-5.49 4.47-9.96 9.96-9.96h90.23c5.49 0 9.96 4.47 9.96 9.96v4.78h-110.15zm-24.29 26.22c0-2.94 2.49-5.43 5.43-5.43h147.88c2.94 0 5.43 2.49 5.43 5.43v5.46h-158.74zm388.83 102.92c0 8.73-7.1 15.83-15.83 15.83h-279.73c-8.73 0-15.83-7.1-15.83-15.83v-81.45h89.31c4.42 0 8.01-3.58 8.01-8.01v-13.46c0-11.82-9.62-21.44-21.44-21.44h-2.85v-4.78c0-14.33-11.65-25.98-25.98-25.98h-47.04v-14.74h38.59c10.95 0 19.86-8.92 19.86-19.88 0-8.32-5.15-15.45-12.42-18.4v-56.35c7.27-2.95 12.42-10.08 12.42-18.4 0-10.95-8.91-19.86-19.86-19.86h-38.59v-81.48c0-8.71 7.1-15.8 15.83-15.8h47.41v10.93c0 14.79 12.04 26.83 26.83 26.83h131.27c14.78 0 26.8-12.04 26.8-26.83v-10.94h47.41c8.73 0 15.83 7.09 15.83 15.8zm-23.73-330.86c0 4.42-3.58 8.01-8.01 8.01h-247.91c-4.42 0-8.01-3.58-8.01-8.01s3.58-8.01 8.01-8.01h247.92c4.42.01 8 3.59 8 8.01zm0 55.51c0 4.42-3.58 8.01-8.01 8.01h-190.49c-4.42 0-8.01-3.58-8.01-8.01s3.58-8.01 8.01-8.01h190.49c4.43 0 8.01 3.58 8.01 8.01zm0 55.5c0 4.42-3.58 8.01-8.01 8.01h-190.49c-4.42 0-8.01-3.58-8.01-8.01s3.58-8.01 8.01-8.01h190.49c4.43 0 8.01 3.59 8.01 8.01zm0 55.5c0 4.42-3.58 8.01-8.01 8.01h-190.49c-4.42 0-8.01-3.58-8.01-8.01s3.58-8.01 8.01-8.01h190.49c4.43 0 8.01 3.59 8.01 8.01zm0 55.5c0 4.42-3.58 8.01-8.01 8.01h-159c-4.42 0-8.01-3.58-8.01-8.01s3.58-8.01 8.01-8.01h159c4.43.01 8.01 3.59 8.01 8.01zm0 55.48c0 4.42-3.58 8.01-8.01 8.01h-247.91c-4.42 0-8.01-3.58-8.01-8.01s3.58-8.01 8.01-8.01h247.92c4.42 0 8 3.58 8 8.01z"/></svg>